<mxfile host="app.diagrams.net" modified="2020-09-07T14:13:49.457Z" agent="5.0 (Macintosh; Intel Mac OS X 10_15_6) AppleWebKit/537.36 (KHTML, like Gecko) Chrome/85.0.4183.83 Safari/537.36" etag="z0HHpukqxlMypJ6340l4" version="13.6.6" type="github">
  <diagram id="Vs9e8ny5J1XmW0SbIa1B" name="Page-1">
    <mxGraphModel dx="1186" dy="646" grid="1" gridSize="10" guides="1" tooltips="1" connect="1" arrows="1" fold="1" page="1" pageScale="1" pageWidth="827" pageHeight="1169" math="0" shadow="0">
      <root>
        <mxCell id="0" />
        <mxCell id="1" parent="0" />
        <mxCell id="8xah1XvFes5_cuaLdXPZ-29" value="业务流程" style="swimlane;html=1;childLayout=stackLayout;resizeParent=1;resizeParentMax=0;startSize=20;" parent="1" vertex="1">
          <mxGeometry x="70" y="30" width="1120" height="1080" as="geometry" />
        </mxCell>
        <mxCell id="8xah1XvFes5_cuaLdXPZ-30" value="选盘准备阶段" style="swimlane;html=1;startSize=20;" parent="8xah1XvFes5_cuaLdXPZ-29" vertex="1">
          <mxGeometry y="20" width="220" height="1060" as="geometry" />
        </mxCell>
        <mxCell id="8xah1XvFes5_cuaLdXPZ-31" value="聚焦选盘" style="swimlane;html=1;startSize=20;" parent="8xah1XvFes5_cuaLdXPZ-29" vertex="1">
          <mxGeometry x="220" y="20" width="225" height="1060" as="geometry" />
        </mxCell>
        <mxCell id="8xah1XvFes5_cuaLdXPZ-32" value="聚焦计划下发" style="swimlane;html=1;startSize=20;" parent="8xah1XvFes5_cuaLdXPZ-29" vertex="1">
          <mxGeometry x="445" y="20" width="225" height="1060" as="geometry" />
        </mxCell>
        <mxCell id="8xah1XvFes5_cuaLdXPZ-48" value="聚焦执行" style="swimlane;html=1;startSize=20;" parent="8xah1XvFes5_cuaLdXPZ-29" vertex="1">
          <mxGeometry x="670" y="20" width="225" height="1060" as="geometry" />
        </mxCell>
        <mxCell id="8xah1XvFes5_cuaLdXPZ-50" value="聚焦后复盘" style="swimlane;html=1;startSize=20;" parent="8xah1XvFes5_cuaLdXPZ-29" vertex="1">
          <mxGeometry x="895" y="20" width="225" height="1060" as="geometry" />
        </mxCell>
        <mxCell id="8xah1XvFes5_cuaLdXPZ-43" value="操作人" style="swimlane;html=1;childLayout=stackLayout;resizeParent=1;resizeParentMax=0;horizontal=0;startSize=20;horizontalStack=0;" parent="1" vertex="1">
          <mxGeometry x="30" y="70" width="1160" height="990" as="geometry" />
        </mxCell>
        <mxCell id="8xah1XvFes5_cuaLdXPZ-44" value="客发，策划" style="swimlane;html=1;startSize=20;horizontal=0;" parent="8xah1XvFes5_cuaLdXPZ-43" vertex="1">
          <mxGeometry x="20" width="1140" height="120" as="geometry" />
        </mxCell>
        <mxCell id="8xah1XvFes5_cuaLdXPZ-45" value="大部总" style="swimlane;html=1;startSize=20;horizontal=0;" parent="8xah1XvFes5_cuaLdXPZ-43" vertex="1">
          <mxGeometry x="20" y="120" width="1140" height="120" as="geometry" />
        </mxCell>
        <mxCell id="8xah1XvFes5_cuaLdXPZ-46" value="新房总，城市总" style="swimlane;html=1;startSize=20;horizontal=0;" parent="8xah1XvFes5_cuaLdXPZ-43" vertex="1">
          <mxGeometry x="20" y="240" width="1140" height="150" as="geometry" />
        </mxCell>
        <mxCell id="8xah1XvFes5_cuaLdXPZ-51" value="市场" style="swimlane;html=1;startSize=20;horizontal=0;" parent="8xah1XvFes5_cuaLdXPZ-43" vertex="1">
          <mxGeometry x="20" y="390" width="1140" height="150" as="geometry" />
        </mxCell>
        <mxCell id="8xah1XvFes5_cuaLdXPZ-52" value="内容" style="swimlane;html=1;startSize=20;horizontal=0;" parent="8xah1XvFes5_cuaLdXPZ-43" vertex="1">
          <mxGeometry x="20" y="540" width="1140" height="150" as="geometry" />
        </mxCell>
        <mxCell id="8xah1XvFes5_cuaLdXPZ-53" value="产品运营" style="swimlane;html=1;startSize=20;horizontal=0;" parent="8xah1XvFes5_cuaLdXPZ-43" vertex="1">
          <mxGeometry x="20" y="690" width="1140" height="150" as="geometry" />
        </mxCell>
        <mxCell id="8xah1XvFes5_cuaLdXPZ-55" value="CA、运营总监、联动总监" style="swimlane;html=1;startSize=20;horizontal=0;" parent="8xah1XvFes5_cuaLdXPZ-43" vertex="1">
          <mxGeometry x="20" y="840" width="1140" height="150" as="geometry" />
        </mxCell>
        <mxCell id="PuIoKSmRrxkjpa4qVoRV-1" value="啊" style="whiteSpace=wrap;html=1;" vertex="1" parent="1">
          <mxGeometry x="90" y="130" width="120" height="60" as="geometry" />
        </mxCell>
      </root>
    </mxGraphModel>
  </diagram>
</mxfile>
